<svg width="25" height="25" viewBox="0 0 25 25" fill="none" xmlns="http://www.w3.org/2000/svg">
<g clip-path="url(#clip0_208_117)">
<path d="M17.3787 8.17954C17.3149 8.06375 17.2196 7.9684 17.1038 7.90452C16.9881 7.84063 16.8566 7.81083 16.7246 7.81857C16.5923 7.82812 16.4656 7.87583 16.3598 7.95591C16.2541 8.03599 16.1738 8.14502 16.1287 8.26978C16.04 8.63481 15.8125 8.9509 15.4945 9.15092C15.1765 9.35095 14.7931 9.41917 14.4257 9.3411C14.0066 9.28368 13.6184 9.08913 13.3217 8.78783C13.0249 8.48653 12.8362 8.09543 12.7851 7.67561V3.49668C12.7852 3.3664 12.7481 3.23879 12.6783 3.1288C12.6085 3.01881 12.5088 2.93098 12.3909 2.87558C12.273 2.82019 12.1417 2.79952 12.0125 2.81599C11.8832 2.83247 11.7614 2.88541 11.6611 2.96863C8.49478 5.77343 6.44606 9.62597 5.89089 13.8193C5.71751 14.9549 5.78878 16.1144 6.09991 17.2202C6.41104 18.326 6.95485 19.3526 7.69492 20.2311C8.96227 21.63 10.7268 22.4773 12.6109 22.5918C15.4228 22.5918 18.7127 20.7717 19.2702 17.3996C19.9806 13.1081 17.485 8.37879 17.3787 8.17954ZM17.9157 17.1762C17.4814 19.8022 14.859 21.2193 12.6109 21.2193C11.1148 21.1077 9.71908 20.4242 8.71347 19.3108C8.09942 18.5763 7.6513 17.7178 7.39978 16.7941C7.14826 15.8703 7.09927 14.9031 7.25617 13.9587C7.68866 10.6588 9.14198 7.57656 11.4128 5.1434V7.67561C11.4647 8.41871 11.7676 9.1221 12.2719 9.67037C12.7762 10.2186 13.4518 10.5792 14.188 10.693C14.6337 10.7851 15.0953 10.7644 15.5309 10.6329C15.9666 10.5014 16.3625 10.2631 16.6827 9.93975C17.3447 11.5141 18.3597 14.4984 17.9157 17.1762V17.1762Z" fill="#686F82"/>
</g>
<defs>
<clipPath id="clip0_208_117">
<rect width="24.035" height="24.035" fill="white" transform="translate(0.598663 0.683594)"/>
</clipPath>
</defs>
</svg>
