<svg width="24" height="24" viewBox="0 0 24 24" fill="none" xmlns="http://www.w3.org/2000/svg">
<path fill-rule="evenodd" clip-rule="evenodd" d="M11.7224 6.18023C7.63082 6.18023 4.31392 9.49713 4.31392 13.5887C4.31392 17.6804 7.63082 20.9973 11.7224 20.9973C15.814 20.9973 19.1309 17.6804 19.1309 13.5887C19.1309 9.49713 15.814 6.18023 11.7224 6.18023ZM2.88001 13.5887C2.88001 8.70521 6.8389 4.74632 11.7224 4.74632C16.606 4.74632 20.5649 8.70521 20.5649 13.5887C20.5649 18.4723 16.606 22.4312 11.7224 22.4312C6.8389 22.4312 2.88001 18.4723 2.88001 13.5887Z" fill="#686F82"/>
<path fill-rule="evenodd" clip-rule="evenodd" d="M8.13766 2.59546C8.13766 2.1995 8.45866 1.87851 8.85462 1.87851H14.5902C14.9862 1.87851 15.3072 2.1995 15.3072 2.59546C15.3072 2.99142 14.9862 3.31242 14.5902 3.31242H8.85462C8.45866 3.31242 8.13766 2.99142 8.13766 2.59546Z" fill="#686F82"/>
<path fill-rule="evenodd" clip-rule="evenodd" d="M11.7224 9.04805C12.1184 9.04805 12.4394 9.36904 12.4394 9.765V13.5888C12.4394 13.9847 12.1184 14.3057 11.7224 14.3057C11.3265 14.3057 11.0055 13.9847 11.0055 13.5888V9.765C11.0055 9.36904 11.3265 9.04805 11.7224 9.04805Z" fill="#686F82"/>
<path fill-rule="evenodd" clip-rule="evenodd" d="M11.0055 13.5887C11.0055 13.1928 11.3265 12.8718 11.7224 12.8718H15.5462C15.9421 12.8718 16.2631 13.1928 16.2631 13.5887C16.2631 13.9847 15.9421 14.3057 15.5462 14.3057H11.7224C11.3265 14.3057 11.0055 13.9847 11.0055 13.5887Z" fill="#686F82"/>
<path fill-rule="evenodd" clip-rule="evenodd" d="M11.7224 1.87851C12.1184 1.87851 12.4394 2.1995 12.4394 2.59546V4.50734C12.4394 4.9033 12.1184 5.22429 11.7224 5.22429C11.3265 5.22429 11.0055 4.9033 11.0055 4.50734V2.59546C11.0055 2.1995 11.3265 1.87851 11.7224 1.87851Z" fill="#686F82"/>
</svg>
