<svg width="24" height="24" viewBox="0 0 24 24" fill="none" xmlns="http://www.w3.org/2000/svg">
<path fill-rule="evenodd" clip-rule="evenodd" d="M12.3749 3.55141C10.4285 3.55141 10.2445 6.94166 9.08567 8.1395C7.92686 9.33734 4.32423 7.96776 3.82369 10.0939C3.3242 12.2211 6.56509 12.9428 6.96468 14.7678C7.36638 16.5929 5.3863 19.157 7.07825 20.4331C8.77021 21.7081 10.5915 18.8222 12.3749 18.8222C14.1584 18.8222 15.9797 21.7081 17.6716 20.4331C19.3636 19.157 17.3845 16.5929 17.7852 14.7678C18.1858 12.9428 21.4257 12.2211 20.9262 10.0939C20.4267 7.96776 16.823 9.33734 15.6653 8.1395C14.5064 6.94166 14.3214 3.55141 12.3749 3.55141Z" stroke="#686F82" stroke-width="1.63875" stroke-linecap="round" stroke-linejoin="round"/>
</svg>
